<svg xmlns="http://www.w3.org/2000/svg" width="190" height="26" viewBox="0 0 190 26">
    <defs>
        <style>
            .cls-1{fill:#040505}
        </style>
    </defs>
    <g id="BI_height_26" transform="translate(-521.954 -437.37)">
        <g id="그룹_1" transform="translate(0 -1)">
            <path id="패스_1" d="M607.382 450.83a7.185 7.185 0 0 0-.005-10.143 7.892 7.892 0 0 0-5.513-1.9h-.264v2.4h.273a5.4 5.4 0 0 1 3.744 1.248 4.729 4.729 0 0 1 .005 6.654 5.324 5.324 0 0 1-3.75 1.27h-2.555v-11.57h-2.478v24.045h2.478v-10.1h2.507a7.9 7.9 0 0 0 5.558-1.904z" class="cls-1"/>
            <path id="패스_2" d="M615.812 451.529h8.819v-2.4h-8.819v-10.34h-2.479v24.045H625.5v-2.4h-9.687z" class="cls-1"/>
            <path id="패스_3" d="M602.18 456.246l6.248 6.842 1.724-1.675-6.123-6.727z" class="cls-1"/>
            <path id="패스_4" d="M562.11 438.784l-4.209 10.2-.077.185 2.253.924 2.923-7.068 4.4 20.144 2.4-.478-5.2-23.907z" class="cls-1"/>
            <path id="패스_5" d="M532.858 439.357l.068-.191-2.322-.8-8.65 23.981 2.284.876 3.609-9.964h5.022v-2.4H528.7z" class="cls-1"/>
            <path id="사각형_1" d="M0 0H6.97V2.401H0z" class="cls-1" transform="translate(618.362 438.794)"/>
            <path id="패스_6" d="M535.107 443.6l-2.288.916 6.6 18.59.069.2 2.288-.916-6.6-18.59z" class="cls-1"/>
            <path id="패스_7" d="M547.767 438.789l-4.562 23.869 2.4.479 3.878-20.261 6.365 13.7 2.167-1.117-7.746-16.67z" class="cls-1"/>
            <path id="패스_8" d="M588.246 439.967a10.963 10.963 0 0 0-5.8-1.578 10.728 10.728 0 0 0-4.613.986l-.2.091 1.2 2.115.167-.075a8.091 8.091 0 0 1 3.325-.716h.2a8.157 8.157 0 0 1 4.43 1.3 9.058 9.058 0 0 1 3.2 3.59 11.8 11.8 0 0 1 0 10.245 9.016 9.016 0 0 1-3.2 3.605 8.168 8.168 0 0 1-4.437 1.3h-.084a8.078 8.078 0 0 1-4.516-1.3 9.03 9.03 0 0 1-3.2-3.606 11.233 11.233 0 0 1-1.169-5.132 11.577 11.577 0 0 1 .544-3.607 9.6 9.6 0 0 1 1.525-2.941l.1-.133-1.683-1.829-.146.183a12.332 12.332 0 0 0-2.1 3.914 15.059 15.059 0 0 0-.729 4.745 12.908 12.908 0 0 0 1.482 6.182 11.143 11.143 0 0 0 4.081 4.35 10.943 10.943 0 0 0 5.664 1.577h.138a10.377 10.377 0 0 0 5.811-1.684 11.654 11.654 0 0 0 4.076-4.6 14.194 14.194 0 0 0 1.48-6.488 12.836 12.836 0 0 0-1.482-6.148 11.145 11.145 0 0 0-4.064-4.346z" class="cls-1"/>
            <path id="사각형_2" d="M0 0H5.698V2.401H0z" class="cls-1" transform="translate(691.046 460.433)"/>
            <path id="사각형_3" d="M0 0H2.479V24.045H0z" class="cls-1" transform="translate(699.772 438.789)"/>
            <path id="사각형_4" d="M0 0H2.479V24.045H0z" class="cls-1" transform="translate(685.814 438.789)"/>
            <path id="사각형_5" d="M0 0H5.698V2.401H0z" class="cls-1" transform="translate(705.003 460.433)"/>
            <path id="패스_9" d="M656.58 438.784h-2.475l-4.209 10.2-.077.185 2.248.924 2.918-7.064 4.4 20.144 2.409-.478-5.179-23.75z" class="cls-1"/>
            <path id="패스_10" d="M639.757 438.789l-4.557 23.869 2.4.479 3.879-20.261 6.364 13.7 2.167-1.117-7.746-16.665z" class="cls-1"/>
            <path id="패스_11" d="M673.923 439.357l.068-.191-2.327-.8-8.651 23.981 2.29.876 3.614-9.964h5.022v-2.4h-4.174z" class="cls-1"/>
            <path id="패스_12" d="M676.167 443.6l-2.288.916 6.6 18.59.069.2 2.288-.916-6.6-18.59z" class="cls-1"/>
        </g>
    </g>
</svg>
